# xmcd
#
# Track frame offsets:
#	150
#	28175
#	41775
#	66192
#	85580
#	97650
#	116725
#	139492
#	150025
#
# Disc length: 2274 seconds
#
# Revision: 1
# Processed by: cddbd v1.5.2PL0 Copyright (c) Steve Scherf et al.
# Submitted via: audiograbber 1.83.01
#
DISCID=6b08e009
DTITLE=Jackalope Junction - A Aense Of Direction Jackalope Junction
DYEAR=1998
DGENRE=Country
TTITLE0=To Wander In This Way
TTITLE1=Never Sung A Love Song
TTITLE2=I Surrender
TTITLE3=Savanna Rose
TTITLE4=The Doghouse
TTITLE5=A Sense Of Direction
TTITLE6=Four Walls
TTITLE7=Louisiana
TTITLE8=The Ballad Of Jackalope Junction
EXTD=
EXTT0=
EXTT1=
EXTT2=
EXTT3=
EXTT4=
EXTT5=
EXTT6=
EXTT7=
EXTT8=
PLAYORDER=
